<svg width="85" height="26" viewBox="0 0 85 26" xmlns="http://www.w3.org/2000/svg"><title>B3A3961E-009C-42F6-9A13-519D5CF4595C</title><g fill="none" fill-rule="evenodd"><path fill="#FEFEFE" d="M30.554 25.168h23.074V2.12H30.554z"/><path d="M29.79 25.93h24.6V1.358h-24.6v24.574zm1.528-1.526h21.546V2.883H31.318v21.52z" fill="#252938"/><path fill="#FEFEFE" d="M46.455 10.423l-4.364 5.133-4.364-5.133"/><path fill="#252938" d="M42.09 16.733l-4.945-5.817 1.163-.986 3.783 4.45 3.782-4.45 1.163.986z"/><path d="M42.09 14.878V6.484v8.394z" fill="#FEFEFE"/><path fill="#252938" d="M41.328 14.88h1.526V6.484h-1.526z"/><path d="M35.201 19.96h13.78H35.2z" fill="#FEFEFE"/><path fill="#252938" d="M35.201 20.724h13.78V19.2H35.2z"/><path fill="#FEFEFE" d="M60.345 25.168h23.073V2.12H60.345z"/><path d="M59.581 25.93h24.601V1.358h-24.6v24.574zm1.527-1.526h21.545V2.883H61.108v21.52z" fill="#252938"/><path fill="#1D1C1B" d="M66.547 15.926H68.9v-2.284h-2.354zM70.913 15.926h2.354v-2.284h-2.354zM75.28 15.926h2.355v-2.284H75.28z"/><path fill="#FEFEFE" d="M.764 24.513h23.073V1.465H.764z"/><path d="M0 25.276h24.599V.702H0v24.574zm1.527-1.527h21.545V2.228H1.527v21.52z" fill="#252938"/><path fill="#FEFEFE" d="M17.12 13.214L9.804 19.42V7.009z"/><path d="M10.568 8.656v9.116l5.372-4.557-5.372-4.56zM9.041 21.068V5.361l9.258 7.854-9.258 7.853z" fill="#252938"/></g></svg>